<!-- Copyright (C) 2013 Matheus Borges Teixeira -->
<!-- ALL RIGHTS RESERVED -->
<!-- Created with Inkscape (http://www.inkscape.org/) -->
<svg xmlns="http://www.w3.org/2000/svg" width="400" height="400" version="1.1">
   <path
     style="fill:#000000;fill-opacity:1;fill-rule:evenodd;stroke:#000000;stroke-width:1.10537481000000000px;stroke-linecap:butt;stroke-linejoin:miter;stroke-opacity:1"
     d="M 190,0 C 152.4211,83.3097 87.524016,97.57656 20,150 C 74.733263,137.04483 -3.2552227,163.28886 1,250 C 51.884444,181.64314 -61.704859,377.0422 260,399 C 145.20372,320.73357 234.10314,247.18979 330,275 C 367.67623,267.55274 378.76104,252.37926 395,220 C 398.33672,205.94811 386.70984,197.52163 375,195 C 370.32463,194.92152 364.67537,193.01305 360,195 C 366.39788,200.40044 373.60212,205.71451 380,220 C 370.13276,238.9648 360.7328,260.56403 330,260 C 271.66248,242.70682 241.8519,256.2554 210,280 C 165.79894,318.55937 182.67973,357.31282 210,380 C 138.82429,371.28166 74.174927,297.00193 81.46875,242 C 82.997023,198.4163 137.5741,166.60183 90,170 C 110.37002,151.33073 137.61134,153.39082 110,145 C 131.78282,130.70315 162.9241,153.42537 145,135 C 157.30663,133.26896 177.18088,138.07794 200,160 C 209.22193,134.97413 219.68348,127.15604 225,120 C 236.99694,108.60189 260.89091,125.12665 280,130 C 316.22199,182.92003 336.91972,185.03151 360,195 C 312.59716,159.46981 303.69439,140.03243 295,120 C 275.40626,109.46777 261.22524,96.30443 225,90 C 230.54751,63.82171 228.14823,36.17828 220,10 C 216.68218,26.88921 211.1784,43.11079 200,60 C 201.5712,34.47091 196.54249,19.07021 190,0 z M 190,25 C 193.71748,44.32688 192.12318,61.345941 185,85 C 187.46629,85.85049 170.54589,83.784121 140,90 C 163.29709,64.57509 177.75252,50.98531 190,25 z"
   />
</svg>
